<?xml version="1.0" encoding="iso-8859-1"?>
<!-- Generator: Adobe Illustrator 18.1.1, SVG Export Plug-In . SVG Version: 6.00 Build 0)  -->
<svg version="1.1" id="Capa_1" xmlns="http://www.w3.org/2000/svg" xmlns:xlink="http://www.w3.org/1999/xlink" x="0px" y="0px"
	 viewBox="0 0 36.062 36.062" style="enable-background:new 0 0 36.062 36.062;" xml:space="preserve">
<g>
	<path d="M21.56,16.586c-0.047-0.053-1.395-1.705,0.146-3.086l1.718-1.543c0,0,1.775-1.229,3.043,0.188l1.593-1.428l-0.681-0.759
		c-2.804-3.128-7.614-3.385-10.741-0.581l-2.922,2.625l5.77,6.431L21.56,16.586z"/>
	<path d="M4.85,19.959c-3.127,2.807-4.303,8.437-1.496,11.564l2.178,2.427c2.805,3.123,8.528,2.562,11.656-0.243l8.258-7.414
		L13.099,12.556L4.85,19.959z"/>
	<path d="M27.047,16.095l-1.616,1.452c0,0-1.758,1.394-3.117-0.119v0.012l-2.057,1.852l5.796,6.459l2.927-2.626
		c3.124-2.807,3.386-7.616,0.581-10.742l-0.682-0.757l-1.62,1.451C27.259,13.076,28.563,14.735,27.047,16.095z"/>
	<path d="M34.207,0.688c-2.225-1.017-4.237-0.901-5.388,0.309c-1.189,1.242-0.791,2.943,1.009,4.418
		c2.26,1.868,1.849,2.983,1.458,3.549c0,0-0.503,0.917-2.152,1.439c-0.217,0.048-1.004,0.125-1.078,0.337l0.823,0.883
		c0.108-0.032,2.048-0.868,3.151-2.48c0.953-1.382,0.475-2.836-1.472-4.434c-1.76-1.442-1.802-2.873-1.271-3.431
		c0.477-0.497,1.996-0.869,4.254,0.164c0.145,0.062,0.412-0.05,0.596-0.26C34.316,0.979,34.349,0.754,34.207,0.688z"/>
	<path d="M24.459,12.963l-1.687,1.514c-0.512,0.459-0.555,1.247-0.094,1.76c0.459,0.513,1.248,0.554,1.758,0.095l1.688-1.515
		c0.511-0.459,0.554-1.247,0.093-1.758C25.759,12.546,24.972,12.502,24.459,12.963z"/>
	<g>
	</g>
	<g>
	</g>
	<g>
	</g>
	<g>
	</g>
	<g>
	</g>
	<g>
	</g>
	<g>
	</g>
	<g>
	</g>
	<g>
	</g>
	<g>
	</g>
	<g>
	</g>
	<g>
	</g>
	<g>
	</g>
	<g>
	</g>
	<g>
	</g>
</g>
<g>
</g>
<g>
</g>
<g>
</g>
<g>
</g>
<g>
</g>
<g>
</g>
<g>
</g>
<g>
</g>
<g>
</g>
<g>
</g>
<g>
</g>
<g>
</g>
<g>
</g>
<g>
</g>
<g>
</g>
</svg>
